<?xml version="1.0" encoding="utf-8"?>
<!-- Generator: Adobe Illustrator 24.3.0, SVG Export Plug-In . SVG Version: 6.00 Build 0)  -->
<svg version="1.1" id="Слой_1" xmlns="http://www.w3.org/2000/svg" xmlns:xlink="http://www.w3.org/1999/xlink" x="0px" y="0px"
	 viewBox="0 0 30 30" style="enable-background:new 0 0 30 30;" xml:space="preserve">
<path d="M29.6,0.4c-0.5-0.6-1.4-0.6-2,0L0.4,27.6c-0.6,0.5-0.6,1.4,0,2c0.3,0.3,0.6,0.4,1,0.4c0.4,0,0.7-0.1,1-0.4L29.6,2.4
	C30.1,1.9,30.1,1,29.6,0.4z"/>
<path d="M6.7,0C3,0,0,3,0,6.7c0,3.7,3,6.7,6.7,6.7c3.7,0,6.7-3,6.7-6.7C13.4,3,10.4,0,6.7,0z M6.7,10.6c-2.1,0-3.9-1.7-3.9-3.9
	s1.7-3.9,3.9-3.9c2.1,0,3.9,1.7,3.9,3.9S8.8,10.6,6.7,10.6z"/>
<path d="M23.3,16.6c-3.7,0-6.7,3-6.7,6.7c0,3.7,3,6.7,6.7,6.7c3.7,0,6.7-3,6.7-6.7S27,16.6,23.3,16.6z M23.3,27.2
	c-2.1,0-3.9-1.7-3.9-3.9s1.7-3.9,3.9-3.9c2.1,0,3.9,1.7,3.9,3.9S25.4,27.2,23.3,27.2z"/>
</svg>
